<svg xmlns="http://www.w3.org/2000/svg" viewBox="0 0 816 1056" width="816" height="1056">

  <!-- White background -->
  <rect width="816" height="1056" fill="#FFFFFF"/>

  <!-- Top accent bar -->
  <rect width="816" height="8" fill="#00C2A8"/>
  <!-- Gold line -->
  <rect y="8" width="816" height="3" fill="#F5C842"/>

  <!-- Header panel — light -->
  <rect y="0" width="816" height="200" fill="#EEF3F8"/>
  <rect width="816" height="8" fill="#00C2A8"/>
  <rect y="8" width="816" height="3" fill="#F5C842"/>

  <!-- Atom icon -->
  <circle cx="90" cy="100" r="12" fill="#00C2A8"/>
  <ellipse cx="90" cy="100" rx="48" ry="20" stroke="#00C2A8" stroke-width="2.5" fill="none"/>
  <ellipse cx="90" cy="100" rx="48" ry="20" stroke="#F5C842" stroke-width="2.5" fill="none" transform="rotate(60 90 100)"/>
  <ellipse cx="90" cy="100" rx="48" ry="20" stroke="#00C2A8" stroke-width="2.5" fill="none" transform="rotate(120 90 100)" opacity="0.4"/>

  <!-- SciQuest Learning title -->
  <text x="155" y="88" font-family="Georgia, serif" font-size="44" font-weight="700" fill="#00A896" letter-spacing="-1">SciQuest</text>
  <text x="155" y="138" font-family="Georgia, serif" font-size="44" font-weight="400" fill="#b8860b" letter-spacing="-1">Learning</text>

  <!-- Tagline -->
  <text x="408" y="175" font-family="Arial, sans-serif" font-size="14" fill="#5a7a96" text-anchor="middle" letter-spacing="2">LIVE · INTERACTIVE · ONLINE EDUCATION</text>

  <!-- Divider -->
  <line x1="60" y1="208" x2="756" y2="208" stroke="#C5D5E4" stroke-width="1.5"/>

  <!-- Hero headline -->
  <text x="408" y="268" font-family="Georgia, serif" font-size="34" font-weight="700" fill="#0B1A2E" text-anchor="middle">Live Science &amp; Math Classes</text>
  <text x="408" y="312" font-family="Georgia, serif" font-size="34" font-weight="700" fill="#0B1A2E" text-anchor="middle">for Middle &amp; High School Students</text>

  <!-- Subheadline -->
  <text x="408" y="352" font-family="Arial, sans-serif" font-size="15" fill="#5a7a96" text-anchor="middle">Interactive Google Meet sessions · Grades 6–12 · Verified Educators</text>

  <!-- Subject pills -->
  <!-- Biology -->
  <rect x="60" y="376" width="158" height="46" rx="10" fill="#e0fdf8" stroke="#00C2A8" stroke-width="1.5"/>
  <text x="139" y="406" font-family="Arial, sans-serif" font-size="14" font-weight="700" fill="#007a6b" text-anchor="middle">🔬 Biology</text>

  <!-- Chemistry -->
  <rect x="234" y="376" width="158" height="46" rx="10" fill="#f5f0ff" stroke="#a855f7" stroke-width="1.5"/>
  <text x="313" y="406" font-family="Arial, sans-serif" font-size="14" font-weight="700" fill="#7c3aed" text-anchor="middle">⚗️ Chemistry</text>

  <!-- Physical Science -->
  <rect x="408" y="376" width="174" height="46" rx="10" fill="#e0f2fe" stroke="#0ea5e9" stroke-width="1.5"/>
  <text x="495" y="406" font-family="Arial, sans-serif" font-size="14" font-weight="700" fill="#0369a1" text-anchor="middle">🌍 Physical Science</text>

  <!-- Mathematics -->
  <rect x="598" y="376" width="158" height="46" rx="10" fill="#fefce8" stroke="#ca8a04" stroke-width="1.5"/>
  <text x="677" y="406" font-family="Arial, sans-serif" font-size="14" font-weight="700" fill="#92400e" text-anchor="middle">📐 Mathematics</text>

  <!-- Divider -->
  <line x1="60" y1="440" x2="756" y2="440" stroke="#C5D5E4" stroke-width="1"/>

  <!-- FOR STUDENTS card -->
  <rect x="60" y="456" width="330" height="306" rx="12" fill="#FFFFFF" stroke="#00C2A8" stroke-width="2"/>
  <!-- Card header -->
  <rect x="60" y="456" width="330" height="50" rx="12" fill="#00C2A8"/>
  <rect x="60" y="481" width="330" height="25" fill="#00C2A8"/>
  <text x="225" y="490" font-family="Georgia, serif" font-size="19" font-weight="700" fill="#FFFFFF" text-anchor="middle">FOR STUDENTS</text>

  <text x="88" y="535" font-family="Arial, sans-serif" font-size="13.5" fill="#2d4a6b">✦  Live classes via Google Meet</text>
  <text x="88" y="562" font-family="Arial, sans-serif" font-size="13.5" fill="#2d4a6b">✦  Choose sessions that fit your schedule</text>
  <text x="88" y="589" font-family="Arial, sans-serif" font-size="13.5" fill="#2d4a6b">✦  Verified, qualified instructors</text>
  <text x="88" y="616" font-family="Arial, sans-serif" font-size="13.5" fill="#2d4a6b">✦  Biology, Chemistry, Physics &amp; Math</text>
  <text x="88" y="643" font-family="Arial, sans-serif" font-size="13.5" fill="#2d4a6b">✦  Grades 6 through 12</text>
  <text x="88" y="670" font-family="Arial, sans-serif" font-size="13.5" fill="#2d4a6b">✦  Affordable per-session pricing</text>
  <text x="88" y="697" font-family="Arial, sans-serif" font-size="13.5" fill="#2d4a6b">✦  Small group classes for better learning</text>

  <!-- Enroll button -->
  <rect x="98" y="720" width="214" height="36" rx="8" fill="#00C2A8"/>
  <text x="205" y="744" font-family="Arial, sans-serif" font-size="14" font-weight="700" fill="#FFFFFF" text-anchor="middle">Enroll Now →</text>

  <!-- FOR INSTRUCTORS card -->
  <rect x="426" y="456" width="330" height="306" rx="12" fill="#FFFFFF" stroke="#ca8a04" stroke-width="2"/>
  <!-- Card header -->
  <rect x="426" y="456" width="330" height="50" rx="12" fill="#F5C842"/>
  <rect x="426" y="481" width="330" height="25" fill="#F5C842"/>
  <text x="591" y="490" font-family="Georgia, serif" font-size="19" font-weight="700" fill="#0B1A2E" text-anchor="middle">FOR INSTRUCTORS</text>

  <text x="454" y="535" font-family="Arial, sans-serif" font-size="13.5" fill="#2d4a6b">✦  Teach from anywhere in the world</text>
  <text x="454" y="562" font-family="Arial, sans-serif" font-size="13.5" fill="#2d4a6b">✦  Set your own schedule &amp; session fees</text>
  <text x="454" y="589" font-family="Arial, sans-serif" font-size="13.5" fill="#2d4a6b">✦  Earn 80% of every session fee</text>
  <text x="454" y="616" font-family="Arial, sans-serif" font-size="13.5" fill="#2d4a6b">✦  Platform handles payments &amp; admin</text>
  <text x="454" y="643" font-family="Arial, sans-serif" font-size="13.5" fill="#2d4a6b">✦  Google Meet classroom — no setup</text>
  <text x="454" y="670" font-family="Arial, sans-serif" font-size="13.5" fill="#2d4a6b">✦  Growing student community</text>
  <text x="454" y="697" font-family="Arial, sans-serif" font-size="13.5" fill="#2d4a6b">✦  Apply in minutes — free to join</text>

  <!-- Apply button -->
  <rect x="464" y="720" width="214" height="36" rx="8" fill="#F5C842"/>
  <text x="571" y="744" font-family="Arial, sans-serif" font-size="14" font-weight="700" fill="#0B1A2E" text-anchor="middle">Apply to Teach →</text>

  <!-- Stats bar -->
  <rect x="60" y="782" width="696" height="66" rx="10" fill="#EEF3F8" stroke="#C5D5E4" stroke-width="1"/>
  <text x="190" y="811" font-family="Georgia, serif" font-size="22" font-weight="700" fill="#00A896" text-anchor="middle">50+</text>
  <text x="190" y="833" font-family="Arial, sans-serif" font-size="11" fill="#5a7a96" text-anchor="middle">LIVE COURSES</text>
  <line x1="310" y1="795" x2="310" y2="838" stroke="#C5D5E4" stroke-width="1"/>
  <text x="408" y="811" font-family="Georgia, serif" font-size="22" font-weight="700" fill="#00A896" text-anchor="middle">200+</text>
  <text x="408" y="833" font-family="Arial, sans-serif" font-size="11" fill="#5a7a96" text-anchor="middle">STUDENTS ENROLLED</text>
  <line x1="506" y1="795" x2="506" y2="838" stroke="#C5D5E4" stroke-width="1"/>
  <text x="626" y="811" font-family="Georgia, serif" font-size="22" font-weight="700" fill="#00A896" text-anchor="middle">4.9 ★</text>
  <text x="626" y="833" font-family="Arial, sans-serif" font-size="11" fill="#5a7a96" text-anchor="middle">AVERAGE RATING</text>

  <!-- QR Code section -->
  <rect x="60" y="868" width="180" height="136" rx="10" fill="#f8fafc" stroke="#C5D5E4" stroke-width="1"/>
  <g transform="translate(70, 878) scale(3.5483870967741935)"><path fill="#ffffff" d="M0 0h31v31H0z"/><path stroke="#0B1A2E" d="M1 1.5h7m1 0h4m1 0h3m1 0h4m1 0h7M1 2.5h1m5 0h1m1 0h3m2 0h1m2 0h1m1 0h1m3 0h1m5 0h1M1 3.5h1m1 0h3m1 0h1m2 0h2m5 0h1m2 0h1m2 0h1m1 0h3m1 0h1M1 4.5h1m1 0h3m1 0h1m1 0h1m1 0h1m1 0h1m1 0h2m1 0h1m1 0h1m2 0h1m1 0h3m1 0h1M1 5.5h1m1 0h3m1 0h1m2 0h2m1 0h1m1 0h1m1 0h2m1 0h1m2 0h1m1 0h3m1 0h1M1 6.5h1m5 0h1m5 0h2m1 0h5m2 0h1m5 0h1M1 7.5h7m1 0h1m1 0h1m1 0h1m1 0h1m1 0h1m1 0h1m1 0h1m1 0h7M9 8.5h4m3 0h5M1 9.5h1m1 0h2m1 0h3m5 0h1m1 0h1m1 0h1m4 0h1m2 0h1m1 0h2M3 10.5h1m2 0h1m2 0h1m2 0h1m1 0h3m1 0h4m1 0h3m3 0h1M1 11.5h1m1 0h1m1 0h1m1 0h1m5 0h2m2 0h1m1 0h1m1 0h2m4 0h2M1 12.5h2m5 0h1m2 0h2m4 0h1m4 0h2m5 0h1M2 13.5h2m3 0h4m1 0h2m1 0h2m1 0h1m2 0h1m2 0h1m1 0h2M2 14.5h1m1 0h3m2 0h4m2 0h1m1 0h2m1 0h1m2 0h1m3 0h3M4 15.5h4m1 0h3m2 0h1m1 0h3m1 0h5m2 0h3M1 16.5h3m1 0h1m3 0h1m1 0h3m1 0h1m1 0h1m10 0h1M4 17.5h5m1 0h2m3 0h3m1 0h1m1 0h2m1 0h3m1 0h1M4 18.5h1m10 0h1m1 0h2m2 0h2m1 0h1m1 0h3M1 19.5h1m1 0h1m3 0h1m1 0h2m2 0h6m2 0h2m1 0h1m2 0h1M4 20.5h2m2 0h1m1 0h3m1 0h2m2 0h2m2 0h3m2 0h1M2 21.5h1m1 0h1m2 0h4m2 0h3m1 0h11M9 22.5h1m1 0h1m1 0h1m2 0h4m1 0h1m3 0h5M1 23.5h7m1 0h2m2 0h1m1 0h2m1 0h4m1 0h1m1 0h2m1 0h1M1 24.5h1m5 0h1m1 0h3m2 0h3m2 0h1m1 0h1m3 0h2m2 0h1M1 25.5h1m1 0h3m1 0h1m9 0h1m1 0h1m1 0h5m1 0h1m1 0h1M1 26.5h1m1 0h3m1 0h1m1 0h2m1 0h1m1 0h1m6 0h2m1 0h3m1 0h1M1 27.5h1m1 0h3m1 0h1m1 0h1m3 0h3m2 0h2m1 0h2m1 0h1m2 0h1m1 0h1M1 28.5h1m5 0h1m3 0h2m2 0h2m1 0h2m1 0h1m2 0h1m1 0h1m1 0h1M1 29.5h7m1 0h3m1 0h1m1 0h1m2 0h4m2 0h1m1 0h1m1 0h1"/></g>
  <text x="150" y="994" font-family="Arial, sans-serif" font-size="10" fill="#5a7a96" text-anchor="middle">Scan to visit</text>

  <!-- Website and CTA text -->
  <text x="290" y="908" font-family="Georgia, serif" font-size="26" font-weight="700" fill="#00A896">sciquestlearning.com</text>
  <text x="290" y="940" font-family="Arial, sans-serif" font-size="13.5" fill="#2d4a6b">Visit our website to browse courses,</text>
  <text x="290" y="960" font-family="Arial, sans-serif" font-size="13.5" fill="#2d4a6b">enroll as a student, or apply to teach.</text>
  <text x="290" y="988" font-family="Arial, sans-serif" font-size="12" fill="#5a7a96">Questions? Visit sciquestlearning.com/contact</text>

  <!-- Bottom bar -->
  <rect y="1022" width="816" height="26" fill="#EEF3F8"/>
  <text x="408" y="1040" font-family="Arial, sans-serif" font-size="10.5" fill="#5a7a96" text-anchor="middle">Biology · Chemistry · Physical Science · Mathematics · Grades 6–12 · sciquestlearning.com</text>

  <!-- Bottom accent lines -->
  <rect y="1048" width="816" height="5" fill="#F5C842"/>
  <rect y="1053" width="816" height="3" fill="#00C2A8"/>

</svg>
